<?xml version="1.0" encoding="utf-8"?>
<!-- Generator: Adobe Illustrator 24.1.2, SVG Export Plug-In . SVG Version: 6.00 Build 0)  -->
<svg version="1.1" id="Layer_1" xmlns="http://www.w3.org/2000/svg" xmlns:xlink="http://www.w3.org/1999/xlink" x="0px" y="0px"
	 width="70" height="97" viewBox="0 0 70 97" enable-background="new 0 0 70 97" xml:space="preserve">
<g>
	<path d="M54.8,0c-0.1,0-0.3,0-0.4,0c-0.7,0.4-1.1,0.9-1.4,1.6c-0.6,1.1-1,2.3-1.3,3.4c-0.2,0.8-0.7,1.2-1.5,1.3
		C47.9,6.7,46.2,8,45,10c-2.6,4.8-3.8,10.1-5.6,15.1C38.7,27,38.6,27,36.7,27c-2.3,0-2.1-0.4-2.1,2.1c0,0.8,0.2,1.2,1.1,1.2
		c0.9-0.1,1.1,0.3,0.4,0.9c-2.7,2.8-6.6,2.7-10,3.9c-7.8,2.4-14.4,7.5-17.3,15.4c-5.5,12.8-7.1,26.3-8.5,40C0.2,92.7,0,94.8,0,97
		c11.1,0,22.2,0,33.3,0c0.1-0.5-0.1-0.9-0.2-1.3c-0.7-1.8-2.1-2.7-3.8-3.1c-0.7-0.2-0.8-0.4-0.4-0.9C34.1,83,32,71.8,37,63
		c1.5-2.5,3.3-4.6,5.6-6.4c0.8-0.6,0.9-0.6,1,0.4c0.1,0.7,0.1,1.4,0.2,2.2c0.3,4.7,0.3,9.5-0.2,14.2c-0.9,8,0,15.8,2,23.6
		c4.4,0,8.9,0,13.3,0c-0.3-2.2-2.1-4-4.2-4.4c-1.3-0.2-2.5-0.1-3.8,0.2c-0.6,0.1-0.8,0-0.9-0.6c-0.4-5.3-0.1-10.6,1-15.8
		c1.3-6,2.4-12.1,3.1-18.2c0.3-2.5,1-4.8,2.3-7c1.2-2.1,2.2-4.3,3.4-6.5c0.9-1.7,1.1-3.4,0.4-5.2c-0.3-0.7-0.5-1.4-0.9-2.1
		c-1-2-2-3.9-2.9-5.9c-0.5-1-0.4-1.1,0.7-1.1c1.6,0,1.6,0,1.7-1.6c0-0.7,0.1-1.9-1-1.7c-0.8-0.1-2.7,0.5-2.2-1
		c1.5-5.2,7.4-4.9,11.7-4c0.6,0.1,1,0,1.3-0.6c0.4-1,0.8-2,1.3-3c0.2-0.4,0.2-0.8-0.1-1.1c-3.2-4.2-6.7-8-11.4-10.4
		c-0.5-0.3-0.8-0.6-0.9-1.1c-0.3-1.4-0.7-2.8-1.3-4.2C55.9,1,55.6,0.4,54.8,0z"/>
</g>
</svg>
